<?xml version="1.0" encoding="UTF-8" standalone="no"?>
<!DOCTYPE svg PUBLIC "-//W3C//DTD SVG 1.1//EN"
 "http://www.w3.org/Graphics/SVG/1.1/DTD/svg11.dtd">
<!-- Generated by graphviz version 2.40.1 (20161225.0304)
 -->
<!-- Title: byteorder_inlines.h Pages: 1 -->
<svg width="176pt" height="84pt"
 viewBox="0.00 0.00 176.00 84.00" xmlns="http://www.w3.org/2000/svg" xmlns:xlink="http://www.w3.org/1999/xlink">
<g id="graph0" class="graph" transform="scale(1 1) rotate(0) translate(4 80)">
<title>byteorder_inlines.h</title>
<polygon fill="#ffffff" stroke="transparent" points="-4,4 -4,-80 172,-80 172,4 -4,4"/>
<!-- Node0 -->
<g id="node1" class="node">
<title>Node0</title>
<polygon fill="#bfbfbf" stroke="#000000" points="31,-56.5 31,-75.5 129,-75.5 129,-56.5 31,-56.5"/>
<text text-anchor="middle" x="80" y="-63.5" font-family="Helvetica,sans-Serif" font-size="10.00" fill="#000000">byteorder_inlines.h</text>
</g>
<!-- Node1 -->
<g id="node2" class="node">
<title>Node1</title>
<polygon fill="#ffffff" stroke="#bfbfbf" points="0,-.5 0,-19.5 68,-19.5 68,-.5 0,-.5"/>
<text text-anchor="middle" x="34" y="-7.5" font-family="Helvetica,sans-Serif" font-size="10.00" fill="#000000">rte_config.h</text>
</g>
<!-- Node0&#45;&gt;Node1 -->
<g id="edge1" class="edge">
<title>Node0&#45;&gt;Node1</title>
<path fill="none" stroke="#191970" d="M71.9874,-56.2455C65.5232,-48.3761 56.2615,-37.101 48.5017,-27.6542"/>
<polygon fill="#191970" stroke="#191970" points="50.9727,-25.1484 41.9208,-19.6427 45.5636,-29.5916 50.9727,-25.1484"/>
</g>
<!-- Node2 -->
<g id="node3" class="node">
<title>Node2</title>
<polygon fill="#ffffff" stroke="#bfbfbf" points="86,-.5 86,-19.5 168,-19.5 168,-.5 86,-.5"/>
<text text-anchor="middle" x="127" y="-7.5" font-family="Helvetica,sans-Serif" font-size="10.00" fill="#000000">rte_byteorder.h</text>
</g>
<!-- Node0&#45;&gt;Node2 -->
<g id="edge2" class="edge">
<title>Node0&#45;&gt;Node2</title>
<path fill="none" stroke="#191970" d="M88.1868,-56.2455C94.8589,-48.2958 104.4479,-36.8706 112.4253,-27.3656"/>
<polygon fill="#191970" stroke="#191970" points="115.1592,-29.5525 118.907,-19.6427 109.7974,-25.0524 115.1592,-29.5525"/>
</g>
</g>
</svg>
