<?xml version="1.0" encoding="UTF-8" standalone="no"?>
<!DOCTYPE svg PUBLIC "-//W3C//DTD SVG 1.1//EN"
 "http://www.w3.org/Graphics/SVG/1.1/DTD/svg11.dtd">
<!-- Generated by graphviz version 2.40.1 (20161225.0304)
 -->
<!-- Title: packet_inlines.h Pages: 1 -->
<svg width="1698pt" height="453pt"
 viewBox="0.00 0.00 1697.50 453.00" xmlns="http://www.w3.org/2000/svg" xmlns:xlink="http://www.w3.org/1999/xlink">
<g id="graph0" class="graph" transform="scale(1 1) rotate(0) translate(4 449)">
<title>packet_inlines.h</title>
<polygon fill="#ffffff" stroke="transparent" points="-4,4 -4,-449 1693.5,-449 1693.5,4 -4,4"/>
<!-- Node0 -->
<g id="node1" class="node">
<title>Node0</title>
<polygon fill="#bfbfbf" stroke="#000000" points="934.5,-425.5 934.5,-444.5 1021.5,-444.5 1021.5,-425.5 934.5,-425.5"/>
<text text-anchor="middle" x="978" y="-432.5" font-family="Helvetica,sans-Serif" font-size="10.00" fill="#000000">packet_inlines.h</text>
</g>
<!-- Node1 -->
<g id="node2" class="node">
<title>Node1</title>
<polygon fill="#ffffff" stroke="#bfbfbf" points="356,-364 356,-383 460,-383 460,-364 356,-364"/>
<text text-anchor="middle" x="408" y="-371" font-family="Helvetica,sans-Serif" font-size="10.00" fill="#000000">odp/api/abi/packet.h</text>
</g>
<!-- Node0&#45;&gt;Node1 -->
<g id="edge1" class="edge">
<title>Node0&#45;&gt;Node1</title>
<path fill="none" stroke="#191970" d="M934.259,-433.0665C846.5034,-428.7348 642.9059,-416.4041 474,-389 467.6717,-387.9733 461.0485,-386.6818 454.5424,-385.2846"/>
<polygon fill="#191970" stroke="#191970" points="454.9977,-381.7998 444.474,-383.0251 453.4649,-388.6299 454.9977,-381.7998"/>
</g>
<!-- Node2 -->
<g id="node3" class="node">
<title>Node2</title>
<g id="a_node3"><a xlink:href="pool_8h.html" target="_top" xlink:title="ODP pool. ">
<polygon fill="#ffffff" stroke="#000000" points="516.5,-364 516.5,-383 593.5,-383 593.5,-364 516.5,-364"/>
<text text-anchor="middle" x="555" y="-371" font-family="Helvetica,sans-Serif" font-size="10.00" fill="#000000">odp/api/pool.h</text>
</a>
</g>
</g>
<!-- Node0&#45;&gt;Node2 -->
<g id="edge2" class="edge">
<title>Node0&#45;&gt;Node2</title>
<path fill="none" stroke="#191970" d="M934.4743,-429.0214C872.2518,-420.4289 754.302,-403.9713 654,-389 637.6272,-386.5561 619.7478,-383.7875 603.744,-381.2732"/>
<polygon fill="#191970" stroke="#191970" points="603.9558,-377.7635 593.5328,-379.6637 602.8658,-384.6781 603.9558,-377.7635"/>
</g>
<!-- Node5 -->
<g id="node6" class="node">
<title>Node5</title>
<polygon fill="#ffffff" stroke="#bfbfbf" points="598.5,-297 598.5,-316 697.5,-316 697.5,-297 598.5,-297"/>
<text text-anchor="middle" x="648" y="-304" font-family="Helvetica,sans-Serif" font-size="10.00" fill="#000000">odp/api/abi/event.h</text>
</g>
<!-- Node0&#45;&gt;Node5 -->
<g id="edge32" class="edge">
<title>Node0&#45;&gt;Node5</title>
<path fill="none" stroke="#191970" d="M934.4132,-431.3003C868.8887,-425.1036 748.7557,-411.0888 712,-389 686.5961,-373.7333 667.536,-344.3155 657.0788,-325.0498"/>
<polygon fill="#191970" stroke="#191970" points="660.1137,-323.299 652.4065,-316.0291 653.8979,-326.5185 660.1137,-323.299"/>
</g>
<!-- Node16 -->
<g id="node17" class="node">
<title>Node16</title>
<polygon fill="#ffffff" stroke="#bfbfbf" points="792.5,-364 792.5,-383 909.5,-383 909.5,-364 792.5,-364"/>
<text text-anchor="middle" x="851" y="-371" font-family="Helvetica,sans-Serif" font-size="10.00" fill="#000000">odp/api/abi/packet_io.h</text>
</g>
<!-- Node0&#45;&gt;Node16 -->
<g id="edge20" class="edge">
<title>Node0&#45;&gt;Node16</title>
<path fill="none" stroke="#191970" d="M958.1563,-425.3906C937.1864,-415.2359 903.9056,-399.1196 879.9964,-387.5416"/>
<polygon fill="#191970" stroke="#191970" points="881.2301,-384.2502 870.7044,-383.0419 878.1792,-390.5504 881.2301,-384.2502"/>
</g>
<!-- Node17 -->
<g id="node18" class="node">
<title>Node17</title>
<g id="a_node18"><a xlink:href="hints_8h.html" target="_top" xlink:title="ODP compiler hints. ">
<polygon fill="#ffffff" stroke="#000000" points="686,-168.5 686,-187.5 766,-187.5 766,-168.5 686,-168.5"/>
<text text-anchor="middle" x="726" y="-175.5" font-family="Helvetica,sans-Serif" font-size="10.00" fill="#000000">odp/api/hints.h</text>
</a>
</g>
</g>
<!-- Node0&#45;&gt;Node17 -->
<g id="edge21" class="edge">
<title>Node0&#45;&gt;Node17</title>
<path fill="none" stroke="#191970" d="M934.1962,-429.8318C883.7736,-423.0133 805.1701,-409.4327 784,-389 730.0299,-336.9096 724.8086,-239.6624 725.244,-197.8958"/>
<polygon fill="#191970" stroke="#191970" points="728.7483,-197.7488 725.481,-187.6704 721.7501,-197.5866 728.7483,-197.7488"/>
</g>
<!-- Node19 -->
<g id="node20" class="node">
<title>Node19</title>
<g id="a_node20"><a xlink:href="time_8h.html" target="_top" xlink:title="ODP time. ">
<polygon fill="#ffffff" stroke="#000000" points="133,-297 133,-316 211,-316 211,-297 133,-297"/>
<text text-anchor="middle" x="172" y="-304" font-family="Helvetica,sans-Serif" font-size="10.00" fill="#000000">odp/api/time.h</text>
</a>
</g>
</g>
<!-- Node0&#45;&gt;Node19 -->
<g id="edge25" class="edge">
<title>Node0&#45;&gt;Node19</title>
<path fill="none" stroke="#191970" d="M934.331,-433.8702C833.0136,-430.7469 584.7583,-420.067 508,-389 487.4753,-380.6929 489.2583,-366.9372 469,-358 376.7455,-317.3009 344.1257,-340.4772 245,-322 237.2982,-320.5644 229.162,-318.9422 221.2262,-317.3016"/>
<polygon fill="#191970" stroke="#191970" points="221.8346,-313.8531 211.3292,-315.2264 220.3981,-320.7042 221.8346,-313.8531"/>
</g>
<!-- Node22 -->
<g id="node23" class="node">
<title>Node22</title>
<polygon fill="#ffffff" stroke="#bfbfbf" points="928,-364 928,-383 1028,-383 1028,-364 928,-364"/>
<text text-anchor="middle" x="978" y="-371" font-family="Helvetica,sans-Serif" font-size="10.00" fill="#000000">odp/api/abi/buffer.h</text>
</g>
<!-- Node0&#45;&gt;Node22 -->
<g id="edge31" class="edge">
<title>Node0&#45;&gt;Node22</title>
<path fill="none" stroke="#191970" d="M978,-425.3906C978,-416.8657 978,-404.1392 978,-393.4235"/>
<polygon fill="#191970" stroke="#191970" points="981.5001,-393.2448 978,-383.2449 974.5001,-393.2449 981.5001,-393.2448"/>
</g>
<!-- Node23 -->
<g id="node24" class="node">
<title>Node23</title>
<g id="a_node24"><a xlink:href="packet__inline__types_8h.html" target="_top" xlink:title="ODP packet descriptor. ">
<polygon fill="#ffffff" stroke="#000000" points="598.5,-224.5 598.5,-254.5 697.5,-254.5 697.5,-224.5 598.5,-224.5"/>
<text text-anchor="start" x="606.5" y="-242.5" font-family="Helvetica,sans-Serif" font-size="10.00" fill="#000000">odp/api/plat/packet</text>
<text text-anchor="middle" x="648" y="-231.5" font-family="Helvetica,sans-Serif" font-size="10.00" fill="#000000">_inline_types.h</text>
</a>
</g>
</g>
<!-- Node0&#45;&gt;Node23 -->
<g id="edge33" class="edge">
<title>Node0&#45;&gt;Node23</title>
<path fill="none" stroke="#191970" d="M934.1122,-428.057C884.8432,-419.6666 808.5706,-404.7081 784,-389 737.3304,-359.1639 745.1432,-331.1664 707,-291 697.1744,-280.6533 685.4896,-270.1349 675.121,-261.3245"/>
<polygon fill="#191970" stroke="#191970" points="677.066,-258.3885 667.1486,-254.6608 672.5767,-263.7595 677.066,-258.3885"/>
</g>
<!-- Node24 -->
<g id="node25" class="node">
<title>Node24</title>
<g id="a_node25"><a xlink:href="pool__inline__types_8h.html" target="_top" xlink:title="ODP packet descriptor. ">
<polygon fill="#ffffff" stroke="#000000" points="1046,-358.5 1046,-388.5 1162,-388.5 1162,-358.5 1046,-358.5"/>
<text text-anchor="start" x="1054" y="-376.5" font-family="Helvetica,sans-Serif" font-size="10.00" fill="#000000">odp/api/plat/pool_inline</text>
<text text-anchor="middle" x="1104" y="-365.5" font-family="Helvetica,sans-Serif" font-size="10.00" fill="#000000">_types.h</text>
</a>
</g>
</g>
<!-- Node0&#45;&gt;Node24 -->
<g id="edge35" class="edge">
<title>Node0&#45;&gt;Node24</title>
<path fill="none" stroke="#191970" d="M997.6875,-425.3906C1015.3716,-416.7591 1041.8806,-403.8202 1064.003,-393.0224"/>
<polygon fill="#191970" stroke="#191970" points="1065.7255,-396.0763 1073.1769,-388.5446 1062.655,-389.7857 1065.7255,-396.0763"/>
</g>
<!-- Node25 -->
<g id="node26" class="node">
<title>Node25</title>
<g id="a_node26"><a xlink:href="pktio__inlines_8h_source.html" target="_top" xlink:title="odp/api/plat/pktio\l_inlines.h">
<polygon fill="#ffffff" stroke="#000000" points="1180.5,-358.5 1180.5,-388.5 1271.5,-388.5 1271.5,-358.5 1180.5,-358.5"/>
<text text-anchor="start" x="1188.5" y="-376.5" font-family="Helvetica,sans-Serif" font-size="10.00" fill="#000000">odp/api/plat/pktio</text>
<text text-anchor="middle" x="1226" y="-365.5" font-family="Helvetica,sans-Serif" font-size="10.00" fill="#000000">_inlines.h</text>
</a>
</g>
</g>
<!-- Node0&#45;&gt;Node25 -->
<g id="edge36" class="edge">
<title>Node0&#45;&gt;Node25</title>
<path fill="none" stroke="#191970" d="M1020.2902,-425.4422C1057.3315,-416.9539 1112.8424,-403.9526 1170.4115,-389.0959"/>
<polygon fill="#191970" stroke="#191970" points="1171.6197,-392.3985 1180.4203,-386.4994 1169.8618,-385.6227 1171.6197,-392.3985"/>
</g>
<!-- Node26 -->
<g id="node27" class="node">
<title>Node26</title>
<polygon fill="#ffffff" stroke="#bfbfbf" points="1289.5,-364 1289.5,-383 1338.5,-383 1338.5,-364 1289.5,-364"/>
<text text-anchor="middle" x="1314" y="-371" font-family="Helvetica,sans-Serif" font-size="10.00" fill="#000000">string.h</text>
</g>
<!-- Node0&#45;&gt;Node26 -->
<g id="edge37" class="edge">
<title>Node0&#45;&gt;Node26</title>
<path fill="none" stroke="#191970" d="M1021.5172,-432.3432C1081.1609,-427.8177 1191.1435,-416.2934 1281,-389 1282.8624,-388.4343 1284.7534,-387.7809 1286.6395,-387.069"/>
<polygon fill="#191970" stroke="#191970" points="1288.0293,-390.2814 1295.8713,-383.1572 1285.2982,-383.8361 1288.0293,-390.2814"/>
</g>
<!-- Node27 -->
<g id="node28" class="node">
<title>Node27</title>
<polygon fill="#ffffff" stroke="#bfbfbf" points="1357,-364 1357,-383 1425,-383 1425,-364 1357,-364"/>
<text text-anchor="middle" x="1391" y="-371" font-family="Helvetica,sans-Serif" font-size="10.00" fill="#000000">sys/types.h</text>
</g>
<!-- Node0&#45;&gt;Node27 -->
<g id="edge38" class="edge">
<title>Node0&#45;&gt;Node27</title>
<path fill="none" stroke="#191970" d="M1021.5671,-432.7248C1091.3182,-428.3837 1232.0071,-416.7504 1348,-389 1351.1642,-388.243 1354.4179,-387.3309 1357.6512,-386.3328"/>
<polygon fill="#191970" stroke="#191970" points="1358.8042,-389.6378 1367.1799,-383.1495 1356.5862,-382.9985 1358.8042,-389.6378"/>
</g>
<!-- Node28 -->
<g id="node29" class="node">
<title>Node28</title>
<polygon fill="#ffffff" stroke="#bfbfbf" points="1443,-364 1443,-383 1511,-383 1511,-364 1443,-364"/>
<text text-anchor="middle" x="1477" y="-371" font-family="Helvetica,sans-Serif" font-size="10.00" fill="#000000">rte_config.h</text>
</g>
<!-- Node0&#45;&gt;Node28 -->
<g id="edge39" class="edge">
<title>Node0&#45;&gt;Node28</title>
<path fill="none" stroke="#191970" d="M1021.6359,-434.1452C1103.4839,-431.7636 1285.2139,-422.7799 1434,-389 1437.2502,-388.2621 1440.5913,-387.3491 1443.9061,-386.3383"/>
<polygon fill="#191970" stroke="#191970" points="1445.2732,-389.572 1453.6538,-383.0901 1443.0602,-382.9311 1445.2732,-389.572"/>
</g>
<!-- Node29 -->
<g id="node30" class="node">
<title>Node29</title>
<polygon fill="#ffffff" stroke="#bfbfbf" points="1529.5,-364 1529.5,-383 1592.5,-383 1592.5,-364 1529.5,-364"/>
<text text-anchor="middle" x="1561" y="-371" font-family="Helvetica,sans-Serif" font-size="10.00" fill="#000000">rte_mbuf.h</text>
</g>
<!-- Node0&#45;&gt;Node29 -->
<g id="edge40" class="edge">
<title>Node0&#45;&gt;Node29</title>
<path fill="none" stroke="#191970" d="M1021.9055,-432.8419C1133.4107,-427.11 1425.3714,-410.4645 1520,-389 1523.1911,-388.2762 1526.467,-387.3582 1529.7091,-386.3317"/>
<polygon fill="#191970" stroke="#191970" points="1530.9283,-389.6133 1539.2156,-383.0124 1528.6207,-383.0045 1530.9283,-389.6133"/>
</g>
<!-- Node30 -->
<g id="node31" class="node">
<title>Node30</title>
<polygon fill="#ffffff" stroke="#bfbfbf" points="1610.5,-364 1610.5,-383 1689.5,-383 1689.5,-364 1610.5,-364"/>
<text text-anchor="middle" x="1650" y="-371" font-family="Helvetica,sans-Serif" font-size="10.00" fill="#000000">rte_memcpy.h</text>
</g>
<!-- Node0&#45;&gt;Node30 -->
<g id="edge41" class="edge">
<title>Node0&#45;&gt;Node30</title>
<path fill="none" stroke="#191970" d="M1021.6695,-433.1386C1144.3575,-427.6935 1490.4581,-410.7949 1602,-389 1606.1576,-388.1876 1610.4579,-387.1288 1614.6985,-385.9457"/>
<polygon fill="#191970" stroke="#191970" points="1615.8297,-389.2602 1624.3896,-383.0169 1613.8047,-382.5595 1615.8297,-389.2602"/>
</g>
<!-- Node3 -->
<g id="node4" class="node">
<title>Node3</title>
<polygon fill="#ffffff" stroke="#bfbfbf" points="368.5,-297 368.5,-316 461.5,-316 461.5,-297 368.5,-297"/>
<text text-anchor="middle" x="415" y="-304" font-family="Helvetica,sans-Serif" font-size="10.00" fill="#000000">odp/api/abi/pool.h</text>
</g>
<!-- Node2&#45;&gt;Node3 -->
<g id="edge3" class="edge">
<title>Node2&#45;&gt;Node3</title>
<path fill="none" stroke="#191970" d="M534.9414,-363.9005C511.1344,-352.5072 471.2461,-333.4178 444.0604,-320.4075"/>
<polygon fill="#191970" stroke="#191970" points="445.5526,-317.2415 435.0214,-316.0817 442.5307,-323.5556 445.5526,-317.2415"/>
</g>
<!-- Node4 -->
<g id="node5" class="node">
<title>Node4</title>
<polygon fill="#ffffff" stroke="#bfbfbf" points="254,-291.5 254,-321.5 350,-321.5 350,-291.5 254,-291.5"/>
<text text-anchor="start" x="262" y="-309.5" font-family="Helvetica,sans-Serif" font-size="10.00" fill="#000000">odp/api/abi/shared</text>
<text text-anchor="middle" x="302" y="-298.5" font-family="Helvetica,sans-Serif" font-size="10.00" fill="#000000">_memory.h</text>
</g>
<!-- Node2&#45;&gt;Node4 -->
<g id="edge4" class="edge">
<title>Node2&#45;&gt;Node4</title>
<path fill="none" stroke="#191970" d="M523.1028,-363.9686C516.1598,-361.9507 508.844,-359.8677 502,-358 439.1891,-340.8595 423.007,-338.4051 360,-322 359.8991,-321.9737 359.7982,-321.9474 359.6971,-321.9211"/>
<polygon fill="#191970" stroke="#191970" points="360.6549,-318.554 350.0942,-319.4037 358.8798,-325.3252 360.6549,-318.554"/>
</g>
<!-- Node2&#45;&gt;Node5 -->
<g id="edge5" class="edge">
<title>Node2&#45;&gt;Node5</title>
<path fill="none" stroke="#191970" d="M568.3246,-363.9005C583.5178,-352.9549 608.5703,-334.9064 626.5284,-321.9688"/>
<polygon fill="#191970" stroke="#191970" points="628.6323,-324.7668 634.7001,-316.0817 624.5405,-319.0872 628.6323,-324.7668"/>
</g>
<!-- Node6 -->
<g id="node7" class="node">
<title>Node6</title>
<g id="a_node7"><a xlink:href="spec_2pool_8h.html" target="_top" xlink:title="ODP pool. ">
<polygon fill="#ffffff" stroke="#000000" points="479.5,-297 479.5,-316 580.5,-316 580.5,-297 479.5,-297"/>
<text text-anchor="middle" x="530" y="-304" font-family="Helvetica,sans-Serif" font-size="10.00" fill="#000000">odp/api/spec/pool.h</text>
</a>
</g>
</g>
<!-- Node2&#45;&gt;Node6 -->
<g id="edge6" class="edge">
<title>Node2&#45;&gt;Node6</title>
<path fill="none" stroke="#191970" d="M551.4181,-363.9005C547.7052,-353.95 541.802,-338.1292 537.1324,-325.6147"/>
<polygon fill="#191970" stroke="#191970" points="540.3504,-324.2271 533.5752,-316.0817 533.7921,-326.6743 540.3504,-324.2271"/>
</g>
<!-- Node7 -->
<g id="node8" class="node">
<title>Node7</title>
<polygon fill="#ffffff" stroke="#bfbfbf" points="513.5,-.5 513.5,-19.5 620.5,-19.5 620.5,-.5 513.5,-.5"/>
<text text-anchor="middle" x="567" y="-7.5" font-family="Helvetica,sans-Serif" font-size="10.00" fill="#000000">odp/visibility_begin.h</text>
</g>
<!-- Node6&#45;&gt;Node7 -->
<g id="edge7" class="edge">
<title>Node6&#45;&gt;Node7</title>
<path fill="none" stroke="#191970" d="M536.8829,-296.7449C547.897,-281.2015 570.2544,-249.9232 590,-224 640.9749,-157.0769 680.2193,-155.4064 708,-76 720.9589,-38.9591 673.8646,-22.7042 630.6671,-15.5723"/>
<polygon fill="#191970" stroke="#191970" points="631.0836,-12.0956 620.6736,-14.0662 630.0404,-19.0174 631.0836,-12.0956"/>
</g>
<!-- Node8 -->
<g id="node9" class="node">
<title>Node8</title>
<g id="a_node9"><a xlink:href="std__types_8h.html" target="_top" xlink:title="Standard C language types and definitions for ODP. ">
<polygon fill="#ffffff" stroke="#000000" points="378,-230 378,-249 480,-249 480,-230 378,-230"/>
<text text-anchor="middle" x="429" y="-237" font-family="Helvetica,sans-Serif" font-size="10.00" fill="#000000">odp/api/std_types.h</text>
</a>
</g>
</g>
<!-- Node6&#45;&gt;Node8 -->
<g id="edge8" class="edge">
<title>Node6&#45;&gt;Node8</title>
<path fill="none" stroke="#191970" d="M515.5292,-296.9005C498.8791,-285.8554 471.326,-267.5776 451.7886,-254.6172"/>
<polygon fill="#191970" stroke="#191970" points="453.712,-251.693 443.444,-249.0817 449.8424,-257.5263 453.712,-251.693"/>
</g>
<!-- Node15 -->
<g id="node16" class="node">
<title>Node15</title>
<polygon fill="#ffffff" stroke="#bfbfbf" points="243,-.5 243,-19.5 343,-19.5 343,-.5 243,-.5"/>
<text text-anchor="middle" x="293" y="-7.5" font-family="Helvetica,sans-Serif" font-size="10.00" fill="#000000">odp/visibility_end.h</text>
</g>
<!-- Node6&#45;&gt;Node15 -->
<g id="edge19" class="edge">
<title>Node6&#45;&gt;Node15</title>
<path fill="none" stroke="#191970" d="M494.7455,-296.9327C454.3149,-285.6635 390.8034,-266.9661 369,-255 259.9987,-195.1781 206.7644,-188.5872 154,-76 136.9789,-39.6809 187.7375,-23.2613 232.6249,-15.8922"/>
<polygon fill="#191970" stroke="#191970" points="233.3132,-19.3279 242.6768,-14.3708 232.2657,-12.4067 233.3132,-19.3279"/>
</g>
<!-- Node9 -->
<g id="node10" class="node">
<title>Node9</title>
<polygon fill="#ffffff" stroke="#bfbfbf" points="309,-168.5 309,-187.5 427,-187.5 427,-168.5 309,-168.5"/>
<text text-anchor="middle" x="368" y="-175.5" font-family="Helvetica,sans-Serif" font-size="10.00" fill="#000000">odp/api/abi/std_types.h</text>
</g>
<!-- Node8&#45;&gt;Node9 -->
<g id="edge9" class="edge">
<title>Node8&#45;&gt;Node9</title>
<path fill="none" stroke="#191970" d="M419.4688,-229.8906C410.2121,-220.5581 395.961,-206.1902 384.7997,-194.9374"/>
<polygon fill="#191970" stroke="#191970" points="387.1928,-192.38 377.6656,-187.7449 382.2228,-197.3095 387.1928,-192.38"/>
</g>
<!-- Node10 -->
<g id="node11" class="node">
<title>Node10</title>
<g id="a_node11"><a xlink:href="spec_2std__types_8h.html" target="_top" xlink:title="Standard C language types and definitions for ODP. ">
<polygon fill="#ffffff" stroke="#000000" points="445,-168.5 445,-187.5 571,-187.5 571,-168.5 445,-168.5"/>
<text text-anchor="middle" x="508" y="-175.5" font-family="Helvetica,sans-Serif" font-size="10.00" fill="#000000">odp/api/spec/std_types.h</text>
</a>
</g>
</g>
<!-- Node8&#45;&gt;Node10 -->
<g id="edge10" class="edge">
<title>Node8&#45;&gt;Node10</title>
<path fill="none" stroke="#191970" d="M441.3438,-229.8906C453.7503,-220.2324 473.0843,-205.1812 487.7413,-193.771"/>
<polygon fill="#191970" stroke="#191970" points="490.0021,-196.4466 495.7429,-187.5419 485.7021,-190.923 490.0021,-196.4466"/>
</g>
<!-- Node10&#45;&gt;Node7 -->
<g id="edge11" class="edge">
<title>Node10&#45;&gt;Node7</title>
<path fill="none" stroke="#191970" d="M515.1366,-168.233C521.4227,-159.2237 530.4223,-145.2735 536,-132 550.5366,-97.4068 559.519,-54.3352 563.8583,-29.7204"/>
<polygon fill="#191970" stroke="#191970" points="567.3185,-30.249 565.5286,-19.8064 560.4158,-29.086 567.3185,-30.249"/>
</g>
<!-- Node11 -->
<g id="node12" class="node">
<title>Node11</title>
<polygon fill="#ffffff" stroke="#bfbfbf" points="595.5,-112.5 595.5,-131.5 644.5,-131.5 644.5,-112.5 595.5,-112.5"/>
<text text-anchor="middle" x="620" y="-119.5" font-family="Helvetica,sans-Serif" font-size="10.00" fill="#000000">stdint.h</text>
</g>
<!-- Node10&#45;&gt;Node11 -->
<g id="edge12" class="edge">
<title>Node10&#45;&gt;Node11</title>
<path fill="none" stroke="#191970" d="M527.2535,-168.3733C545.0712,-159.4644 571.7747,-146.1127 591.9594,-136.0203"/>
<polygon fill="#191970" stroke="#191970" points="593.6187,-139.1038 600.9978,-131.5011 590.4882,-132.8428 593.6187,-139.1038"/>
</g>
<!-- Node12 -->
<g id="node13" class="node">
<title>Node12</title>
<g id="a_node13"><a xlink:href="align_8h.html" target="_top" xlink:title="ODP alignments. ">
<polygon fill="#ffffff" stroke="#000000" points="447,-112.5 447,-131.5 527,-131.5 527,-112.5 447,-112.5"/>
<text text-anchor="middle" x="487" y="-119.5" font-family="Helvetica,sans-Serif" font-size="10.00" fill="#000000">odp/api/align.h</text>
</a>
</g>
</g>
<!-- Node10&#45;&gt;Node12 -->
<g id="edge13" class="edge">
<title>Node10&#45;&gt;Node12</title>
<path fill="none" stroke="#191970" d="M504.3421,-168.2455C501.5416,-160.7776 497.591,-150.2427 494.1676,-141.1137"/>
<polygon fill="#191970" stroke="#191970" points="497.4045,-139.777 490.616,-131.6427 490.8501,-142.2349 497.4045,-139.777"/>
</g>
<!-- Node10&#45;&gt;Node15 -->
<g id="edge18" class="edge">
<title>Node10&#45;&gt;Node15</title>
<path fill="none" stroke="#191970" d="M470.8725,-168.4075C426.6022,-155.0599 353.4108,-126.6237 312,-76 301.2772,-62.8917 296.6042,-44.0129 294.5686,-29.8016"/>
<polygon fill="#191970" stroke="#191970" points="298.0186,-29.1571 293.4364,-19.6045 291.0614,-29.9297 298.0186,-29.1571"/>
</g>
<!-- Node13 -->
<g id="node14" class="node">
<title>Node13</title>
<polygon fill="#ffffff" stroke="#bfbfbf" points="321.5,-56.5 321.5,-75.5 416.5,-75.5 416.5,-56.5 321.5,-56.5"/>
<text text-anchor="middle" x="369" y="-63.5" font-family="Helvetica,sans-Serif" font-size="10.00" fill="#000000">odp/api/abi/align.h</text>
</g>
<!-- Node12&#45;&gt;Node13 -->
<g id="edge14" class="edge">
<title>Node12&#45;&gt;Node13</title>
<path fill="none" stroke="#191970" d="M466.7151,-112.3733C447.8579,-103.4241 419.554,-89.9917 398.2545,-79.8835"/>
<polygon fill="#191970" stroke="#191970" points="399.5551,-76.6266 389.0202,-75.5011 396.5539,-82.9506 399.5551,-76.6266"/>
</g>
<!-- Node14 -->
<g id="node15" class="node">
<title>Node14</title>
<g id="a_node15"><a xlink:href="spec_2align_8h.html" target="_top" xlink:title="ODP alignments. ">
<polygon fill="#ffffff" stroke="#000000" points="435,-56.5 435,-75.5 539,-75.5 539,-56.5 435,-56.5"/>
<text text-anchor="middle" x="487" y="-63.5" font-family="Helvetica,sans-Serif" font-size="10.00" fill="#000000">odp/api/spec/align.h</text>
</a>
</g>
</g>
<!-- Node12&#45;&gt;Node14 -->
<g id="edge15" class="edge">
<title>Node12&#45;&gt;Node14</title>
<path fill="none" stroke="#191970" d="M487,-112.2455C487,-104.9382 487,-94.6944 487,-85.7046"/>
<polygon fill="#191970" stroke="#191970" points="490.5001,-85.6426 487,-75.6427 483.5001,-85.6427 490.5001,-85.6426"/>
</g>
<!-- Node14&#45;&gt;Node7 -->
<g id="edge16" class="edge">
<title>Node14&#45;&gt;Node7</title>
<path fill="none" stroke="#191970" d="M500.9349,-56.2455C513.0947,-47.7337 530.9464,-35.2375 545.0285,-25.3801"/>
<polygon fill="#191970" stroke="#191970" points="547.0395,-28.2447 553.2248,-19.6427 543.0253,-22.51 547.0395,-28.2447"/>
</g>
<!-- Node14&#45;&gt;Node15 -->
<g id="edge17" class="edge">
<title>Node14&#45;&gt;Node15</title>
<path fill="none" stroke="#191970" d="M453.6502,-56.3733C420.972,-46.9404 371.0382,-32.5265 335.523,-22.2747"/>
<polygon fill="#191970" stroke="#191970" points="336.493,-18.9119 325.9146,-19.5011 334.5516,-25.6373 336.493,-18.9119"/>
</g>
<!-- Node18 -->
<g id="node19" class="node">
<title>Node18</title>
<g id="a_node19"><a xlink:href="spec_2hints_8h.html" target="_top" xlink:title="ODP compiler hints. ">
<polygon fill="#ffffff" stroke="#000000" points="595,-56.5 595,-75.5 699,-75.5 699,-56.5 595,-56.5"/>
<text text-anchor="middle" x="647" y="-63.5" font-family="Helvetica,sans-Serif" font-size="10.00" fill="#000000">odp/api/spec/hints.h</text>
</a>
</g>
</g>
<!-- Node17&#45;&gt;Node18 -->
<g id="edge22" class="edge">
<title>Node17&#45;&gt;Node18</title>
<path fill="none" stroke="#191970" d="M719.2645,-168.4509C706.0299,-149.688 676.452,-107.7548 659.5257,-83.758"/>
<polygon fill="#191970" stroke="#191970" points="662.3426,-81.6792 653.7184,-75.5249 656.6224,-85.714 662.3426,-81.6792"/>
</g>
<!-- Node18&#45;&gt;Node7 -->
<g id="edge23" class="edge">
<title>Node18&#45;&gt;Node7</title>
<path fill="none" stroke="#191970" d="M633.0651,-56.2455C620.9053,-47.7337 603.0536,-35.2375 588.9715,-25.3801"/>
<polygon fill="#191970" stroke="#191970" points="590.9747,-22.51 580.7752,-19.6427 586.9605,-28.2447 590.9747,-22.51"/>
</g>
<!-- Node18&#45;&gt;Node15 -->
<g id="edge24" class="edge">
<title>Node18&#45;&gt;Node15</title>
<path fill="none" stroke="#191970" d="M594.7661,-57.737C530.3729,-47.5505 421.1542,-30.273 353.2718,-19.5345"/>
<polygon fill="#191970" stroke="#191970" points="353.5801,-16.0399 343.156,-17.9343 352.4863,-22.9539 353.5801,-16.0399"/>
</g>
<!-- Node19&#45;&gt;Node8 -->
<g id="edge26" class="edge">
<title>Node19&#45;&gt;Node8</title>
<path fill="none" stroke="#191970" d="M208.5489,-296.9717C254.1851,-285.0743 332.3147,-264.7059 382.2596,-251.6852"/>
<polygon fill="#191970" stroke="#191970" points="383.3675,-255.0135 392.1611,-249.1039 381.6015,-248.2399 383.3675,-255.0135"/>
</g>
<!-- Node20 -->
<g id="node21" class="node">
<title>Node20</title>
<polygon fill="#ffffff" stroke="#bfbfbf" points="0,-230 0,-249 94,-249 94,-230 0,-230"/>
<text text-anchor="middle" x="47" y="-237" font-family="Helvetica,sans-Serif" font-size="10.00" fill="#000000">odp/api/abi/time.h</text>
</g>
<!-- Node19&#45;&gt;Node20 -->
<g id="edge27" class="edge">
<title>Node19&#45;&gt;Node20</title>
<path fill="none" stroke="#191970" d="M154.0905,-296.9005C133.1127,-285.6564 98.1504,-266.9166 73.9065,-253.9219"/>
<polygon fill="#191970" stroke="#191970" points="75.3435,-250.7211 64.8762,-249.0817 72.0365,-256.8907 75.3435,-250.7211"/>
</g>
<!-- Node21 -->
<g id="node22" class="node">
<title>Node21</title>
<g id="a_node22"><a xlink:href="spec_2time_8h.html" target="_top" xlink:title="ODP time. ">
<polygon fill="#ffffff" stroke="#000000" points="163,-56.5 163,-75.5 265,-75.5 265,-56.5 163,-56.5"/>
<text text-anchor="middle" x="214" y="-63.5" font-family="Helvetica,sans-Serif" font-size="10.00" fill="#000000">odp/api/spec/time.h</text>
</a>
</g>
</g>
<!-- Node19&#45;&gt;Node21 -->
<g id="edge28" class="edge">
<title>Node19&#45;&gt;Node21</title>
<path fill="none" stroke="#191970" d="M165.3395,-296.7819C158.9403,-286.8093 149.7121,-270.5894 146,-255 142.8085,-241.597 143.2195,-237.4943 146,-224 156.9979,-170.6258 186.8691,-113.0611 203.1184,-84.4009"/>
<polygon fill="#191970" stroke="#191970" points="206.2751,-85.9334 208.2446,-75.5232 200.2131,-82.433 206.2751,-85.9334"/>
</g>
<!-- Node21&#45;&gt;Node7 -->
<g id="edge29" class="edge">
<title>Node21&#45;&gt;Node7</title>
<path fill="none" stroke="#191970" d="M265.3292,-57.8571C328.2602,-47.8737 434.9308,-30.9515 503.1096,-20.1356"/>
<polygon fill="#191970" stroke="#191970" points="503.9658,-23.5436 513.2939,-18.5199 502.869,-16.6301 503.9658,-23.5436"/>
</g>
<!-- Node21&#45;&gt;Node15 -->
<g id="edge30" class="edge">
<title>Node21&#45;&gt;Node15</title>
<path fill="none" stroke="#191970" d="M227.7607,-56.2455C239.6552,-47.814 257.065,-35.4729 270.9085,-25.6598"/>
<polygon fill="#191970" stroke="#191970" points="273.2628,-28.2811 279.3969,-19.6427 269.2146,-22.5704 273.2628,-28.2811"/>
</g>
<!-- Node23&#45;&gt;Node11 -->
<g id="edge34" class="edge">
<title>Node23&#45;&gt;Node11</title>
<path fill="none" stroke="#191970" d="M644.3395,-224.1389C639.2719,-202.873 630.1206,-164.4702 624.5981,-141.2956"/>
<polygon fill="#191970" stroke="#191970" points="628.0008,-140.4757 622.278,-131.5595 621.1915,-142.0985 628.0008,-140.4757"/>
</g>
</g>
</svg>
