<?xml version="1.0" encoding="UTF-8" standalone="no"?>
<!DOCTYPE svg PUBLIC "-//W3C//DTD SVG 1.1//EN"
 "http://www.w3.org/Graphics/SVG/1.1/DTD/svg11.dtd">
<!-- Generated by graphviz version 2.40.1 (20161225.0304)
 -->
<!-- Title: hints.h Pages: 1 -->
<svg width="367pt" height="308pt"
 viewBox="0.00 0.00 367.00 308.00" xmlns="http://www.w3.org/2000/svg" xmlns:xlink="http://www.w3.org/1999/xlink">
<g id="graph0" class="graph" transform="scale(1 1) rotate(0) translate(4 304)">
<title>hints.h</title>
<polygon fill="#ffffff" stroke="transparent" points="-4,4 -4,-304 363,-304 363,4 -4,4"/>
<!-- Node3 -->
<g id="node1" class="node">
<title>Node3</title>
<polygon fill="#bfbfbf" stroke="#000000" points="147.5,-280.5 147.5,-299.5 193.5,-299.5 193.5,-280.5 147.5,-280.5"/>
<text text-anchor="middle" x="170.5" y="-287.5" font-family="Helvetica,sans-Serif" font-size="10.00" fill="#000000">hints.h</text>
</g>
<!-- Node4 -->
<g id="node2" class="node">
<title>Node4</title>
<g id="a_node2"><a xlink:href="hints_8h.html" target="_top" xlink:title="ODP compiler hints. ">
<polygon fill="#ffffff" stroke="#000000" points="147.5,-224.5 147.5,-243.5 193.5,-243.5 193.5,-224.5 147.5,-224.5"/>
<text text-anchor="middle" x="170.5" y="-231.5" font-family="Helvetica,sans-Serif" font-size="10.00" fill="#000000">hints.h</text>
</a>
</g>
</g>
<!-- Node3&#45;&gt;Node4 -->
<g id="edge1" class="edge">
<title>Node3&#45;&gt;Node4</title>
<path fill="none" stroke="#191970" d="M170.5,-270.1575C170.5,-261.155 170.5,-250.9199 170.5,-243.6427"/>
<polygon fill="#191970" stroke="#191970" points="167.0001,-270.2455 170.5,-280.2455 174.0001,-270.2456 167.0001,-270.2455"/>
</g>
<!-- Node5 -->
<g id="node3" class="node">
<title>Node5</title>
<g id="a_node3"><a xlink:href="spec_2init_8h.html" target="_top" xlink:title="init.h">
<polygon fill="#ffffff" stroke="#000000" points="28.5,-168.5 28.5,-187.5 66.5,-187.5 66.5,-168.5 28.5,-168.5"/>
<text text-anchor="middle" x="47.5" y="-175.5" font-family="Helvetica,sans-Serif" font-size="10.00" fill="#000000">init.h</text>
</a>
</g>
</g>
<!-- Node4&#45;&gt;Node5 -->
<g id="edge2" class="edge">
<title>Node4&#45;&gt;Node5</title>
<path fill="none" stroke="#191970" d="M140.0608,-220.1415C117.1281,-209.7006 86.3822,-195.7025 66.7515,-186.7649"/>
<polygon fill="#191970" stroke="#191970" points="138.8041,-223.415 149.3555,-224.3733 141.7047,-217.0442 138.8041,-223.415"/>
</g>
<!-- Node9 -->
<g id="node7" class="node">
<title>Node9</title>
<g id="a_node7"><a xlink:href="cpu__inlines_8h_source.html" target="_top" xlink:title="cpu_inlines.h">
<polygon fill="#ffffff" stroke="#000000" points="84.5,-168.5 84.5,-187.5 158.5,-187.5 158.5,-168.5 84.5,-168.5"/>
<text text-anchor="middle" x="121.5" y="-175.5" font-family="Helvetica,sans-Serif" font-size="10.00" fill="#000000">cpu_inlines.h</text>
</a>
</g>
</g>
<!-- Node4&#45;&gt;Node9 -->
<g id="edge6" class="edge">
<title>Node4&#45;&gt;Node9</title>
<path fill="none" stroke="#191970" d="M155.1878,-216.5004C146.8553,-206.9775 136.8647,-195.5596 129.9373,-187.6427"/>
<polygon fill="#191970" stroke="#191970" points="152.7457,-219.0245 161.9649,-224.2455 158.0138,-214.415 152.7457,-219.0245"/>
</g>
<!-- Node10 -->
<g id="node8" class="node">
<title>Node10</title>
<g id="a_node8"><a xlink:href="packet__inlines_8h.html" target="_top" xlink:title="ODP packet inline functions. ">
<polygon fill="#ffffff" stroke="#000000" points="177,-168.5 177,-187.5 264,-187.5 264,-168.5 177,-168.5"/>
<text text-anchor="middle" x="220.5" y="-175.5" font-family="Helvetica,sans-Serif" font-size="10.00" fill="#000000">packet_inlines.h</text>
</a>
</g>
</g>
<!-- Node4&#45;&gt;Node10 -->
<g id="edge7" class="edge">
<title>Node4&#45;&gt;Node10</title>
<path fill="none" stroke="#191970" d="M186.1247,-216.5004C194.6273,-206.9775 204.8218,-195.5596 211.8905,-187.6427"/>
<polygon fill="#191970" stroke="#191970" points="183.2587,-214.4551 179.2093,-224.2455 188.4803,-219.1172 183.2587,-214.4551"/>
</g>
<!-- Node11 -->
<g id="node9" class="node">
<title>Node11</title>
<g id="a_node9"><a xlink:href="time__inlines_8h_source.html" target="_top" xlink:title="time_inlines.h">
<polygon fill="#ffffff" stroke="#000000" points="282,-168.5 282,-187.5 359,-187.5 359,-168.5 282,-168.5"/>
<text text-anchor="middle" x="320.5" y="-175.5" font-family="Helvetica,sans-Serif" font-size="10.00" fill="#000000">time_inlines.h</text>
</a>
</g>
</g>
<!-- Node4&#45;&gt;Node11 -->
<g id="edge8" class="edge">
<title>Node4&#45;&gt;Node11</title>
<path fill="none" stroke="#191970" d="M203.1911,-221.7953C230.7123,-211.5208 269.5292,-197.0291 294.8506,-187.5758"/>
<polygon fill="#191970" stroke="#191970" points="201.753,-218.5962 193.6088,-225.3727 204.2014,-225.1541 201.753,-218.5962"/>
</g>
<!-- Node6 -->
<g id="node4" class="node">
<title>Node6</title>
<g id="a_node4"><a xlink:href="init_8h.html" target="_top" xlink:title="ODP initialization. ">
<polygon fill="#ffffff" stroke="#000000" points="28.5,-112.5 28.5,-131.5 66.5,-131.5 66.5,-112.5 28.5,-112.5"/>
<text text-anchor="middle" x="47.5" y="-119.5" font-family="Helvetica,sans-Serif" font-size="10.00" fill="#000000">init.h</text>
</a>
</g>
</g>
<!-- Node5&#45;&gt;Node6 -->
<g id="edge3" class="edge">
<title>Node5&#45;&gt;Node6</title>
<path fill="none" stroke="#191970" d="M47.5,-158.1575C47.5,-149.155 47.5,-138.9199 47.5,-131.6427"/>
<polygon fill="#191970" stroke="#191970" points="44.0001,-158.2455 47.5,-168.2455 51.0001,-158.2456 44.0001,-158.2455"/>
</g>
<!-- Node7 -->
<g id="node5" class="node">
<title>Node7</title>
<g id="a_node5"><a xlink:href="spec_2shared__memory_8h.html" target="_top" xlink:title="ODP shared memory. ">
<polygon fill="#ffffff" stroke="#000000" points="0,-56.5 0,-75.5 95,-75.5 95,-56.5 0,-56.5"/>
<text text-anchor="middle" x="47.5" y="-63.5" font-family="Helvetica,sans-Serif" font-size="10.00" fill="#000000">shared_memory.h</text>
</a>
</g>
</g>
<!-- Node6&#45;&gt;Node7 -->
<g id="edge4" class="edge">
<title>Node6&#45;&gt;Node7</title>
<path fill="none" stroke="#191970" d="M47.5,-102.1575C47.5,-93.155 47.5,-82.9199 47.5,-75.6427"/>
<polygon fill="#191970" stroke="#191970" points="44.0001,-102.2455 47.5,-112.2455 51.0001,-102.2456 44.0001,-102.2455"/>
</g>
<!-- Node8 -->
<g id="node6" class="node">
<title>Node8</title>
<g id="a_node6"><a xlink:href="shared__memory_8h.html" target="_top" xlink:title="ODP shared memory. ">
<polygon fill="#ffffff" stroke="#000000" points="0,-.5 0,-19.5 95,-19.5 95,-.5 0,-.5"/>
<text text-anchor="middle" x="47.5" y="-7.5" font-family="Helvetica,sans-Serif" font-size="10.00" fill="#000000">shared_memory.h</text>
</a>
</g>
</g>
<!-- Node7&#45;&gt;Node8 -->
<g id="edge5" class="edge">
<title>Node7&#45;&gt;Node8</title>
<path fill="none" stroke="#191970" d="M47.5,-46.1575C47.5,-37.155 47.5,-26.9199 47.5,-19.6427"/>
<polygon fill="#191970" stroke="#191970" points="44.0001,-46.2455 47.5,-56.2455 51.0001,-46.2456 44.0001,-46.2455"/>
</g>
</g>
</svg>
